<mxfile host="Electron" agent="Mozilla/5.0 (Windows NT 10.0; Win64; x64) AppleWebKit/537.36 (KHTML, like Gecko) draw.io/27.0.5 Chrome/134.0.6998.205 Electron/35.3.0 Safari/537.36" version="27.0.5" pages="3">
  <diagram name="server_sftp-introduction" id="ZuUjq1oBNj3Yt_BZWQuD">
    <mxGraphModel dx="498" dy="311" grid="1" gridSize="10" guides="1" tooltips="1" connect="1" arrows="1" fold="1" page="1" pageScale="1" pageWidth="350" pageHeight="420" math="0" shadow="0">
      <root>
        <mxCell id="0" />
        <mxCell id="1" value="Diagrama" style="" parent="0" />
        <mxCell id="nhUN8rxTikC8suUAEnMW-1" value="&lt;span style=&quot;&quot;&gt;&amp;nbsp;«Ubuntu»&lt;br&gt;&lt;b&gt;&amp;nbsp;Server&lt;/b&gt;&lt;/span&gt;" style="html=1;dropTarget=0;whiteSpace=wrap;align=left;verticalAlign=top;fillColor=none;fontFamily=Helvetica;strokeColor=#F0B100;fontSize=16;strokeWidth=2;fontColor=#FFFFFF;labelBackgroundColor=#171717;" parent="1" vertex="1">
          <mxGeometry x="10" y="180" width="330" height="230" as="geometry" />
        </mxCell>
        <mxCell id="nhUN8rxTikC8suUAEnMW-2" value="" style="shape=module;jettyWidth=8;jettyHeight=4;fontFamily=Inter;fontSize=16;fillColor=none;strokeColor=#F0B100;strokeWidth=2;" parent="nhUN8rxTikC8suUAEnMW-1" vertex="1">
          <mxGeometry x="1" width="20" height="20" relative="1" as="geometry">
            <mxPoint x="-27" y="7" as="offset" />
          </mxGeometry>
        </mxCell>
        <mxCell id="nhUN8rxTikC8suUAEnMW-3" value="&lt;font style=&quot;&quot;&gt;&amp;nbsp;«Container»&lt;br&gt;&lt;b&gt;&amp;nbsp;Docker&lt;/b&gt;&lt;/font&gt;" style="html=1;dropTarget=0;whiteSpace=wrap;align=left;verticalAlign=top;fillColor=none;fontFamily=Helvetica;strokeColor=#2B7FFF;fontSize=16;strokeWidth=2;fontColor=#FFFFFF;labelBackgroundColor=#171717;" parent="1" vertex="1">
          <mxGeometry x="30" y="230" width="290" height="160" as="geometry" />
        </mxCell>
        <mxCell id="nhUN8rxTikC8suUAEnMW-4" value="" style="shape=module;jettyWidth=8;jettyHeight=4;fontFamily=Inter;fontSize=16;fillColor=none;strokeColor=#2B7FFF;strokeWidth=2;" parent="nhUN8rxTikC8suUAEnMW-3" vertex="1">
          <mxGeometry x="1" width="20" height="20" relative="1" as="geometry">
            <mxPoint x="-27" y="7" as="offset" />
          </mxGeometry>
        </mxCell>
        <mxCell id="nhUN8rxTikC8suUAEnMW-5" value="&lt;font style=&quot;&quot;&gt;«SFTP»&lt;br&gt;&lt;b&gt;Linux Server&lt;/b&gt;&lt;/font&gt;" style="html=1;dropTarget=0;whiteSpace=wrap;align=center;verticalAlign=middle;fillColor=none;fontFamily=Helvetica;strokeColor=#FF2056;fontSize=16;strokeWidth=2;fontColor=#FFFFFF;labelBackgroundColor=#171717;" parent="1" vertex="1">
          <mxGeometry x="50" y="280" width="250" height="90" as="geometry" />
        </mxCell>
        <mxCell id="nhUN8rxTikC8suUAEnMW-6" value="" style="shape=module;jettyWidth=8;jettyHeight=4;fontFamily=Inter;fontSize=16;fillColor=none;strokeWidth=2;strokeColor=#FF2056;" parent="nhUN8rxTikC8suUAEnMW-5" vertex="1">
          <mxGeometry x="1" width="20" height="20" relative="1" as="geometry">
            <mxPoint x="-27" y="7" as="offset" />
          </mxGeometry>
        </mxCell>
        <mxCell id="nhUN8rxTikC8suUAEnMW-11" style="edgeStyle=orthogonalEdgeStyle;rounded=0;orthogonalLoop=1;jettySize=auto;html=1;dashed=1;strokeWidth=2;strokeColor=#FFFFFF;fontSize=16;" parent="1" source="nhUN8rxTikC8suUAEnMW-8" target="nhUN8rxTikC8suUAEnMW-5" edge="1">
          <mxGeometry relative="1" as="geometry">
            <mxPoint x="175" y="160" as="sourcePoint" />
            <Array as="points">
              <mxPoint x="175" y="190" />
              <mxPoint x="175" y="190" />
            </Array>
          </mxGeometry>
        </mxCell>
        <mxCell id="nhUN8rxTikC8suUAEnMW-13" value="&lt;span style=&quot;&quot;&gt;&lt;font style=&quot;&quot;&gt;use&lt;/font&gt;&lt;/span&gt;" style="edgeLabel;html=1;align=center;verticalAlign=middle;resizable=0;points=[];fontFamily=Helvetica;fontSize=16;labelBackgroundColor=#171717;fontColor=#FFFFFF;" parent="nhUN8rxTikC8suUAEnMW-11" vertex="1" connectable="0">
          <mxGeometry x="-0.3646" y="-1" relative="1" as="geometry">
            <mxPoint x="1" y="-17" as="offset" />
          </mxGeometry>
        </mxCell>
        <mxCell id="nhUN8rxTikC8suUAEnMW-8" value="" style="shape=umlActor;verticalLabelPosition=bottom;verticalAlign=top;html=1;strokeWidth=2;strokeColor=#FFFFFF;fontSize=16;labelBackgroundColor=default;fillColor=#FFFFFF;shadow=0;" parent="1" vertex="1">
          <mxGeometry x="150" y="10" width="50" height="90" as="geometry" />
        </mxCell>
        <mxCell id="nhUN8rxTikC8suUAEnMW-12" value="&lt;font style=&quot;&quot;&gt;Actor&lt;/font&gt;" style="text;align=center;fontStyle=1;verticalAlign=middle;spacingLeft=3;spacingRight=3;strokeColor=none;rotatable=0;points=[[0,0.5],[1,0.5]];portConstraint=eastwest;html=1;fontFamily=Helvetica;fontSize=16;fontColor=#FFFFFF;labelBackgroundColor=#171717;" parent="1" vertex="1">
          <mxGeometry x="165" y="45" width="80" height="26" as="geometry" />
        </mxCell>
      </root>
    </mxGraphModel>
  </diagram>
  <diagram id="3j4ALyZD_itbC8EVBflF" name="server_sftp-docker">
    <mxGraphModel dx="727" dy="454" grid="1" gridSize="10" guides="1" tooltips="1" connect="1" arrows="1" fold="1" page="1" pageScale="1" pageWidth="500" pageHeight="610" math="0" shadow="0">
      <root>
        <mxCell id="0" />
        <mxCell id="1" value="Diagram" style="locked=1;" parent="0" />
        <mxCell id="jNUU0SotHu1UUU-fDFnR-1" value="&lt;font style=&quot;color: rgb(255, 255, 255);&quot;&gt;«Ubuntu»&lt;br&gt;&lt;b&gt;Server&lt;/b&gt;&lt;/font&gt;" style="html=1;dropTarget=0;whiteSpace=wrap;fontSize=16;fontFamily=Helvetica;verticalAlign=top;fillColor=none;strokeColor=#F0B100;strokeWidth=2;" vertex="1" parent="1">
          <mxGeometry x="10" y="10" width="480" height="590" as="geometry" />
        </mxCell>
        <mxCell id="jNUU0SotHu1UUU-fDFnR-2" value="" style="shape=module;jettyWidth=8;jettyHeight=4;fontFamily=Helvetica;fontSize=16;fillColor=none;strokeColor=#F0B100;strokeWidth=2;" vertex="1" parent="jNUU0SotHu1UUU-fDFnR-1">
          <mxGeometry x="1" width="20" height="20" relative="1" as="geometry">
            <mxPoint x="-27" y="7" as="offset" />
          </mxGeometry>
        </mxCell>
        <mxCell id="mxg7SmcjYMl-GCq87uAX-1" value="&lt;font style=&quot;color: rgb(255, 255, 255);&quot;&gt;«Folder»&lt;br&gt;&lt;b&gt;Operating System&lt;/b&gt;&lt;/font&gt;" style="html=1;dropTarget=0;whiteSpace=wrap;fontSize=16;fontFamily=Helvetica;fillColor=none;strokeColor=#FF2056;strokeWidth=2;" vertex="1" parent="1">
          <mxGeometry x="160" y="60" width="180" height="90" as="geometry" />
        </mxCell>
        <mxCell id="mxg7SmcjYMl-GCq87uAX-2" value="" style="shape=module;jettyWidth=8;jettyHeight=4;fontFamily=Helvetica;fontSize=16;fillColor=none;strokeColor=#FF2056;strokeWidth=2;" vertex="1" parent="mxg7SmcjYMl-GCq87uAX-1">
          <mxGeometry x="1" width="20" height="20" relative="1" as="geometry">
            <mxPoint x="-27" y="7" as="offset" />
          </mxGeometry>
        </mxCell>
        <mxCell id="mxg7SmcjYMl-GCq87uAX-7" value="&lt;span&gt;&amp;nbsp;&lt;font&gt;«Container»&lt;br&gt;&lt;b&gt;&amp;nbsp;Docker&lt;/b&gt;&lt;/font&gt;&lt;/span&gt;" style="html=1;dropTarget=0;whiteSpace=wrap;verticalAlign=top;align=left;fontSize=16;fontFamily=Helvetica;fillColor=none;strokeColor=#2B7FFF;strokeWidth=2;fontColor=#FFFFFF;labelBackgroundColor=none;" vertex="1" parent="1">
          <mxGeometry x="40" y="200" width="420" height="380" as="geometry" />
        </mxCell>
        <mxCell id="mxg7SmcjYMl-GCq87uAX-8" value="" style="shape=module;jettyWidth=8;jettyHeight=4;fontFamily=Helvetica;fontSize=16;fillColor=none;strokeColor=#2B7FFF;strokeWidth=2;" vertex="1" parent="mxg7SmcjYMl-GCq87uAX-7">
          <mxGeometry x="1" width="20" height="20" relative="1" as="geometry">
            <mxPoint x="-27" y="7" as="offset" />
          </mxGeometry>
        </mxCell>
        <mxCell id="g61ECsMKBp7kHvWE8j8z-1" value="&amp;nbsp;&lt;font style=&quot;color: rgb(255, 255, 255);&quot;&gt;«SFTP»&lt;br&gt;&lt;b&gt;&amp;nbsp;Linux Server&lt;/b&gt;&lt;/font&gt;" style="html=1;dropTarget=0;whiteSpace=wrap;verticalAlign=top;align=left;fillColor=none;strokeColor=#E12AFB;fontSize=16;fontFamily=Helvetica;strokeWidth=2;" vertex="1" parent="1">
          <mxGeometry x="70" y="250" width="360" height="310" as="geometry" />
        </mxCell>
        <mxCell id="g61ECsMKBp7kHvWE8j8z-2" value="" style="shape=module;jettyWidth=8;jettyHeight=4;fontFamily=Helvetica;fontSize=16;fillColor=none;strokeColor=#E12AFB;strokeWidth=2;" vertex="1" parent="g61ECsMKBp7kHvWE8j8z-1">
          <mxGeometry x="1" width="20" height="20" relative="1" as="geometry">
            <mxPoint x="-27" y="7" as="offset" />
          </mxGeometry>
        </mxCell>
        <mxCell id="mxg7SmcjYMl-GCq87uAX-4" value="&lt;font style=&quot;color: rgb(255, 255, 255);&quot;&gt;«Folder»&lt;br&gt;&lt;b&gt;SFTP Server&lt;/b&gt;&lt;/font&gt;" style="html=1;dropTarget=0;whiteSpace=wrap;fontSize=16;fontFamily=Helvetica;fillColor=none;strokeColor=#FF2056;strokeWidth=2;" vertex="1" parent="1">
          <mxGeometry x="160" y="300" width="180" height="90" as="geometry" />
        </mxCell>
        <mxCell id="mxg7SmcjYMl-GCq87uAX-5" value="" style="shape=module;jettyWidth=8;jettyHeight=4;fontFamily=Helvetica;fontSize=16;strokeColor=#FF2056;fillColor=none;strokeWidth=2;" vertex="1" parent="mxg7SmcjYMl-GCq87uAX-4">
          <mxGeometry x="1" width="20" height="20" relative="1" as="geometry">
            <mxPoint x="-27" y="7" as="offset" />
          </mxGeometry>
        </mxCell>
        <mxCell id="TKJbZWnyecMgC9bBMDFX-1" value="&lt;font style=&quot;color: rgb(255, 255, 255);&quot;&gt;«Folder»&lt;br&gt;&lt;b&gt;yahoo_finance&lt;/b&gt;&lt;/font&gt;" style="html=1;dropTarget=0;whiteSpace=wrap;fontSize=16;fontFamily=Helvetica;strokeWidth=2;strokeColor=#FFFFFF;fillColor=none;" vertex="1" parent="1">
          <mxGeometry x="100" y="450" width="140" height="90" as="geometry" />
        </mxCell>
        <mxCell id="TKJbZWnyecMgC9bBMDFX-2" value="" style="shape=module;jettyWidth=8;jettyHeight=4;fontFamily=Helvetica;fontSize=16;fillColor=none;strokeColor=#FFFFFF;strokeWidth=2;" vertex="1" parent="TKJbZWnyecMgC9bBMDFX-1">
          <mxGeometry x="1" width="20" height="20" relative="1" as="geometry">
            <mxPoint x="-27" y="7" as="offset" />
          </mxGeometry>
        </mxCell>
        <mxCell id="TKJbZWnyecMgC9bBMDFX-4" value="&lt;font style=&quot;color: rgb(255, 255, 255);&quot;&gt;«Folder»&lt;br&gt;&lt;b&gt;other folders&lt;/b&gt;&lt;/font&gt;" style="html=1;dropTarget=0;whiteSpace=wrap;fontSize=16;fontFamily=Helvetica;strokeWidth=2;strokeColor=#FFFFFF;fillColor=none;" vertex="1" parent="1">
          <mxGeometry x="260" y="450" width="140" height="90" as="geometry" />
        </mxCell>
        <mxCell id="TKJbZWnyecMgC9bBMDFX-5" value="" style="shape=module;jettyWidth=8;jettyHeight=4;fontFamily=Helvetica;fontSize=16;fillColor=none;strokeColor=#FFFFFF;strokeWidth=2;" vertex="1" parent="TKJbZWnyecMgC9bBMDFX-4">
          <mxGeometry x="1" width="20" height="20" relative="1" as="geometry">
            <mxPoint x="-27" y="7" as="offset" />
          </mxGeometry>
        </mxCell>
        <mxCell id="TKJbZWnyecMgC9bBMDFX-7" value="" style="endArrow=block;startArrow=block;endFill=1;startFill=1;html=1;rounded=0;entryX=0.5;entryY=0;entryDx=0;entryDy=0;strokeWidth=2;strokeColor=#FFFFFF;fontFamily=Helvetica;fontSize=16;" edge="1" parent="1" source="mxg7SmcjYMl-GCq87uAX-1" target="mxg7SmcjYMl-GCq87uAX-4">
          <mxGeometry width="160" relative="1" as="geometry">
            <mxPoint x="100" y="440" as="sourcePoint" />
            <mxPoint x="260" y="440" as="targetPoint" />
          </mxGeometry>
        </mxCell>
        <mxCell id="TKJbZWnyecMgC9bBMDFX-12" value="&lt;span&gt;&lt;font&gt;Mapped Volume&lt;/font&gt;&lt;/span&gt;" style="edgeLabel;html=1;align=center;verticalAlign=middle;resizable=0;points=[];fontSize=16;labelBackgroundColor=none;fontColor=#FFFFFF;fontFamily=Helvetica;" vertex="1" connectable="0" parent="TKJbZWnyecMgC9bBMDFX-7">
          <mxGeometry x="-0.1214" y="-1" relative="1" as="geometry">
            <mxPoint x="1" y="-42" as="offset" />
          </mxGeometry>
        </mxCell>
        <mxCell id="TKJbZWnyecMgC9bBMDFX-8" value="1" style="endArrow=open;html=1;endSize=12;startArrow=diamondThin;startSize=14;startFill=1;edgeStyle=orthogonalEdgeStyle;align=left;verticalAlign=bottom;rounded=0;exitX=0.25;exitY=1;exitDx=0;exitDy=0;strokeWidth=2;strokeColor=#FFFFFF;fontFamily=Helvetica;fontSize=16;" edge="1" parent="1" source="mxg7SmcjYMl-GCq87uAX-4" target="TKJbZWnyecMgC9bBMDFX-1">
          <mxGeometry x="-1" y="3" relative="1" as="geometry">
            <mxPoint x="100" y="440" as="sourcePoint" />
            <mxPoint x="260" y="440" as="targetPoint" />
          </mxGeometry>
        </mxCell>
        <mxCell id="TKJbZWnyecMgC9bBMDFX-11" value="1" style="endArrow=open;html=1;endSize=12;startArrow=diamondThin;startSize=14;startFill=1;edgeStyle=orthogonalEdgeStyle;align=left;verticalAlign=bottom;rounded=0;exitX=0.75;exitY=1;exitDx=0;exitDy=0;entryX=0.5;entryY=0;entryDx=0;entryDy=0;strokeWidth=2;strokeColor=#FFFFFF;fontFamily=Helvetica;fontSize=16;" edge="1" parent="1" source="mxg7SmcjYMl-GCq87uAX-4" target="TKJbZWnyecMgC9bBMDFX-4">
          <mxGeometry x="-1" y="3" relative="1" as="geometry">
            <mxPoint x="70" y="420" as="sourcePoint" />
            <mxPoint x="230" y="420" as="targetPoint" />
          </mxGeometry>
        </mxCell>
      </root>
    </mxGraphModel>
  </diagram>
  <diagram id="-rZjWQhKUSfBIeYw_sgl" name="server_sftp-folder-structure">
    <mxGraphModel dx="1426" dy="859" grid="1" gridSize="10" guides="1" tooltips="1" connect="1" arrows="1" fold="1" page="1" pageScale="1" pageWidth="500" pageHeight="610" math="0" shadow="0">
      <root>
        <mxCell id="0" />
        <mxCell id="1" parent="0" />
      </root>
    </mxGraphModel>
  </diagram>
</mxfile>
